<?xml version="1.0" encoding="UTF-8"?>
<!-- Created with Inkscape (http://www.inkscape.org/) -->
<svg id="svg1" width="10" height="10" version="1.1" viewBox="0 0 2.6458 2.6458" xmlns="http://www.w3.org/2000/svg">
 <g id="layer1">
  <path id="path5" d="m1.3232 0.065112c-0.69355 0-1.2583 0.56424-1.2583 1.2578 0 0.69355 0.56477 1.2578 1.2583 1.2578 0.69355 0 1.2578-0.56425 1.2578-1.2578 0-0.69356-0.56426-1.2578-1.2578-1.2578zm0 0.20309c0.052583 0 0.10402 0.003961 0.15451 0.011369 0.23168 0.28424 0.37052 0.64737 0.37052 1.0433 0 0.39598-0.13884 0.75911-0.37052 1.0433-0.05049 0.00741-0.10193 0.011369-0.15451 0.011369-0.58358 0-1.0547-0.47115-1.0547-1.0547 0-0.58359 0.47114-1.0542 1.0547-1.0542z" color="#000000" color-rendering="auto" image-rendering="auto" shape-rendering="auto" solid-color="#000000" style="isolation:auto;mix-blend-mode:normal;text-decoration-color:#000000;text-decoration-line:none;text-decoration-style:solid;text-indent:0;text-transform:none;white-space:normal"/>
 </g>
</svg>
