<?xml version="1.0" encoding="UTF-8"?>
<!-- Created with Inkscape (http://www.inkscape.org/) -->
<svg id="svg1" width="200mm" height="50mm" version="1.1" viewBox="0 0 200 50" xmlns="http://www.w3.org/2000/svg">
 <g id="layer1">
  <g id="g8" transform="translate(-4.5409 -13.28)">
   <path id="text1" d="m26.704 27.266q-0.1778 0.5588-0.2032 1.0668t-0.0254 1.0668q-0.1016 2.0066-0.0508 3.9878 0.0762 1.9558 0.127 3.937 0.3302 0.3048 0.7112 0.381 0.4064 0.0762 0.8128 0.0508 0.4318-0.0508 0.8382-0.1524 0.4318-0.127 0.8128-0.2032 0.1778-0.0508 0.2794 0.1016t0.0508 0.3302q-0.6858 1.0668-1.5748 1.8542t-1.9304 1.651q-0.1524 0.0508-0.3048 0.127-0.1524 0.1016-0.3556 0.0508-1.9558-0.7366-3.8354-1.397-1.8542-0.635-3.9116-0.889-0.0762-0.0508-0.2032-0.127-0.127-0.1016-0.1778-0.1524-0.3556-0.0254-0.8382 0.1016t-0.889 0.2032q-0.381 0.0508-0.6096-0.0508t-0.1016-0.635q0.0254-0.3048 0.254-0.508 0.2286-0.2286 0.508-0.4064 0.3048-0.2032 0.5842-0.4064 0.3048-0.2286 0.4572-0.5334 0.4064-0.8382 0.4826-1.7018 0.1016-0.8636 0.0254-1.7526-0.0508-0.889-0.1524-1.8034t-0.0762-1.8288q0-0.1524-0.0254-0.3556 0-0.2286-0.0508-0.4064-0.0254-0.2032-0.127-0.3302-0.0762-0.1524-0.254-0.1524-0.762-0.0762-1.6256-0.0254-0.8382 0.0254-1.6256-0.0508-0.762-0.1016-1.397-0.4064-0.635-0.3302-0.9652-1.143-0.1524-0.381-0.0762-0.7112 0.0762-0.3556 0.2794-0.6604 0.2032-0.3302 0.4826-0.6096 0.2794-0.3048 0.508-0.5842 0.762-1.0668 1.7526-1.778t2.1336-1.27q0.4572-0.1524 0.889-0.254 0.4572-0.127 0.9144-0.127 0.889-0.1778 1.7526-0.254t1.6256 0.254q0.381 0.2032 0.7874 0.3048 0.4318 0.0762 0.8382 0.1524 0.4318 0.0762 0.8382 0.2032 0.4064 0.1016 0.7874 0.3302 0.1778 0.1524 0.381 0.1524t0.4318 0.0508q0.2286 0.1016 0.4064 0.2794 0.1778 0.1524 0.4064 0.1524 0.6096 0.0508 1.1684 0.3302 0.5588 0.254 1.0922 0.4826 0.1778 0.0762 0.4064 0.1016 0.254 0 0.4572 0.0254 0.2286 0.0254 0.381 0.1016 0.1524 0.0508 0.1524 0.2794-0.127 0.9144-0.6096 1.8288-0.4572 0.889-1.1938 1.4986-0.1524 0.1524-0.4064 0.0762t-0.508-0.1524q-0.2286-0.0762-0.4318-0.0508t-0.2794 0.3556zm-6.0452-1.8542q-0.127 1.4732-0.0762 2.921 0.0762 1.4224 0.0762 2.921-0.0508 0.6604 0 1.3462 0.0762 0.6604 0.3556 1.27h0.2794q0.254-0.6858 0.3302-1.3716 0.1016-0.6858 0.0762-1.3716 0-0.6858-0.0508-1.3716t-0.0508-1.3716q0-0.7112 0.0254-1.3462 0.0508-0.635 0.0508-1.2954-0.127-0.3048 0.2286-0.6096 0.1524-0.1524 0.1524-0.3556 0.0254-0.2032-0.0508-0.254-1.2192-1.0414-2.8194-1.2954-1.5748-0.254-3.2004-0.0254-0.3556 0-0.6858 0.0762-0.3302 0.0508-0.7112 0.2286-0.2286 0-0.3556 0.3048-0.127 0.2794-0.0762 0.508 0.5588 1.1176 1.6764 1.651 1.143 0.508 2.3114 0.5842 0.1524 0 0.3048-0.0508 0.1778-0.0762 0.3048-0.127 0.2286-0.127 0.4064-0.3302 0.2032-0.2032 0.381-0.381 0.1778-0.2032 0.3556-0.3556 0.2032-0.1524 0.4826-0.1778 0.0762 0 0.1778 0.127 0.1016 0.1016 0.1016 0.1524zm5.0038 10.363q0.0508-2.3622-0.0254-4.699-0.0508-2.3622 0.1016-4.699 0-0.0762-0.0508-0.0762-0.0254-0.0254-0.1016-0.0254-0.0508 0-0.1016-0.0254-0.0254-0.0254-0.0254-0.1016-0.2286 0.1778-0.381 0.4318-0.127 0.254 0 0.4572 0.0508 1.3462 0.0254 2.5908-0.0254 1.2192-0.0254 2.5146 0 0.4318-0.381 0.7366t-0.7874 0.4572q-0.7366 0.4572-1.4478 0.9398t-1.4478 1.0414q-0.127 0.0762-0.1524 0.2032 0 0.1016 0.0508 0.2286 0.0762 0.1016 0.2032 0.2286 0.127 0.1016 0.2794 0.1524 0.9906 0.2794 1.9812 0.6096 0.9906 0.3048 1.9812 0.381 0.2032 0 0.254-0.127 0.0762-0.1524 0.0762-0.3556 0.0254-0.2032 0-0.4318t-0.0254-0.4318zm8.2804 4.7752q-0.8636-0.127-1.6002-0.6096-0.7366-0.508-1.4478-1.0922-0.1524-0.0508-0.2032-0.254t0-0.4064q0.1524-0.2794 0.4572-0.5334 0.3302-0.254 0.4318-0.6096 0.2032-1.524 0.2286-2.9972 0.0254-1.4986 0.0254-3.0226 0.1016-0.5842 0-1.143-0.0762-0.5588-0.0762-1.143 0-0.9144 0.0254-1.8288 0.0508-0.9398 0.0508-1.8542 0-0.1016 0.0762-0.2032 0.0762-0.127 0.127-0.1778 0.6604-0.5842 1.3462-1.016t1.3208-1.016q0.5842-0.4318 1.1938-0.635 0.635-0.2286 1.2192-0.5842 0.127-0.0762 0.1778 0.0254 0.0762 0.0762 0.0762 0.1778 0.0762 0.8636-0.0254 1.6764-0.1016 0.7874-0.3048 1.6002-0.1778 0.7874-0.4318 1.5748-0.2286 0.7874-0.4572 1.6256 0.0508 0.0762 0.1016 0.127 0.1016 0.1016 0.1524 0.0508 0.381-0.3556 0.8636-0.6604 0.4826-0.3302 0.9906-0.1016 0.762 0.2794 1.4986 0.7874t1.5494 1.016q0.0508 0.0762 0.1016 0.2286 0.0508 0.127-0.0254 0.254-0.1524 0.2032-0.3302 0.4318-0.1778 0.2032-0.3302 0.4064-0.127 0.2794-0.2032 0.5842t0.0254 0.6858q0.0508 0.5842 0.0254 1.1938 0 0.5842 0.0508 1.1684 0 0.127-0.1016 0.3302t-0.1016 0.3556q0.1524 0.635 0.127 1.27t-0.127 1.27q-0.0508 0.8636-0.0762 1.778t-0.3048 1.778q-0.127 0.2794-0.2032 0.6096-0.0508 0.3302-0.254 0.6096-0.6604 0.8636-1.27 1.524-0.6096 0.6858-1.397 1.3208-0.0762 0.1524-0.127 0.3302-0.0254 0.2032-0.1778 0.254-0.2032 0.0762-0.3302-0.1016-0.1016-0.1524-0.0508-0.2794 0.2794-0.508 0.6096-0.9652 0.3302-0.4318 0.5334-0.9398 0.1524-0.3556 0.2032-0.6604t0.1778-0.6858q0.2286-0.4826 0.1778-1.0922-0.0254-0.5842 0.0254-1.0668 0-1.3716-0.0508-2.7178-0.0254-1.3716-0.0254-2.7432-0.1016-0.762-0.0254-1.5494 0.1016-0.7874 0.1016-1.5748-0.2794-0.254-0.7366-0.4826-0.4318-0.254-0.889-0.3556-0.4572-0.127-0.8636-0.0254-0.4064 0.0762-0.6604 0.4826-0.2286 0.3556-0.3556 0.762-0.1016 0.4064-0.0254 0.8382 0.1524 1.143 0.0508 2.2606-0.0762 1.0922 0.1524 2.2352 0.0254 0.2794 0.1778 0.4318 0.1778 0.127 0.381 0.2286 0.2286 0.0762 0.4318 0.1778t0.3302 0.3048q0.2286 0.4318 0.0254 0.762-0.1778 0.3302-0.5588 0.6096-0.3556 0.2794-0.7874 0.5334-0.4318 0.2286-0.6858 0.4572zm0.9398-16.561q-0.127 0.5842-0.1524 1.1938 0 0.6096 0.0762 1.1938 0 0.4318 0 0.8636 0.0254 0.4318 0.0762 0.8636 0.1016 0.2794 0.3048 0.1524 0.2286-0.127 0.2794-0.2794 0.1524-0.3556 0.3556-1.016 0.2286-0.6604 0.3556-1.4224 0.1524-0.762 0.127-1.524-0.0254-0.7874-0.3556-1.397-0.3556 0.2032-0.6604 0.5842-0.3048 0.3556-0.4064 0.7874zm13.741 13.97q0.2794 0.0762 0.6096-0.0762 0.3302-0.1778 0.6096-0.127 0.0762 0.1016 0.1778 0.2286 0.1016 0.1016 0 0.1524-0.7112 0.6604-1.3462 1.3462-0.6096 0.6604-1.397 1.1684-0.9906-0.2794-1.8542-0.7112-0.8636-0.4572-1.8796-0.7366-0.3556-0.0508-0.7112-0.0508-0.3302 0-0.6858-0.2032-0.2032-0.2032-0.2032-0.4318 0.2794-0.5334 0.381-1.0922 0.1016-0.5842 0.1016-1.1684 0-0.6096-0.0254-1.1938-0.0254-0.6096 0-1.1938 0.1016-0.9906-0.0254-1.9558-0.1016-0.9652 0.0254-1.9558 0.1016-0.2032 0.1778-0.4064 0.1016-0.2032 0.3302-0.254 0.4826-0.1778 0.889-0.4318 0.4318-0.2794 0.8382-0.5842t0.8128-0.6096q0.4064-0.3302 0.889-0.5842 0.8636 0.8128 1.6256 1.6764 0.7874 0.8382 1.6002 1.7526 0.127 0.1778 0.2794 0.381 0.1524 0.1778 0.1016 0.381-0.4064 0.6096-0.8636 1.1176t-0.9398 0.9652-0.9906 0.9144q-0.508 0.4318-1.016 0.9398-0.2286 0.127-0.4826 0.2032-0.254 0.0508-0.381 0.254-0.1524 0.4318 0.0508 0.8636t0.635 0.5842q0.635 0.2032 1.27 0.4318 0.6604 0.2032 1.397 0.4064zm-3.3528-7.0612q-0.2032 0.9652-0.0508 1.8542 0.1524 0.8636 0.1524 1.778 0 0.0762 0.1016 0.1016 0.127 0 0.1778 0 0.2032-0.254 0.4572-0.4826t0.4572-0.4572q0.2032-0.254 0.3302-0.508 0.127-0.2794 0.0762-0.635-0.0254-0.2794-0.1778-0.508-0.127-0.2286-0.3302-0.4064-0.2032-0.2032-0.4318-0.381-0.2032-0.2032-0.381-0.4318-0.0508-0.0762-0.1778 0t-0.2032 0.0762zm25.756-4.9022q0.3048 1.2192 0.3048 2.4384t0 2.4384q0.0762 1.2192 0.1778 2.5146 0.1016 1.27-0.1778 2.4892-0.2286 0.508-0.8636 0.889-0.635 0.3556-1.2446 0.7366-0.5842 0.381-1.0668 0.7874-0.4572 0.4064-0.889 0.8382-0.6096 0.508-1.3208 0.8636t-1.2192 0.8382q-0.2794 0.2794-0.6096 0.508-0.3048 0.2286-0.6096 0.0254-0.5842-0.4064-1.143-0.8636-0.5334-0.4318-1.0922-0.8382-0.5334-0.4318-1.1176-0.762-0.5842-0.3556-1.2446-0.5842-0.762-0.3048-1.4478-0.6604-0.6604-0.3556-1.4732-0.3556-0.1524 0.0254-0.3556-0.0254-0.1778-0.0508-0.3302-0.1524t-0.2286-0.254 0-0.3048q0.1778-0.4064 0.5334-0.6858 0.381-0.3048 0.7874-0.5588t0.762-0.5334 0.5334-0.6604q0.3048-0.6096 0.381-1.2192 0.0762-0.635 0.0508-1.27t-0.1016-1.27q-0.0508-0.6604 0-1.3208 0.0254-0.2286-0.1016-0.3556-0.1016-0.127-0.2794-0.2032-0.1778-0.1016-0.3556-0.1524-0.1778-0.0762-0.2794-0.1778-0.2286-0.254-0.0508-0.4318 0.2032-0.2032 0.4572-0.3048h0.4826q2.1844 0 4.064-0.8128 0.1016-0.0508 0.254-0.254t0.0762-0.3556q-0.254-0.4572-0.6858-0.6604-0.4318-0.2286-0.9398-0.2286-0.1016-0.1016-0.2286-0.1524-0.127-0.0762-0.1778-0.1524-0.4572-0.1524-0.9398-0.1778t-0.9652 0.0254q-0.4572 0.0254-0.9398 0.1016-0.4826 0.0508-0.9398 0.0508-0.1524 0-0.3048-0.1778-0.1524-0.2032-0.1016-0.4572 0.5588-0.7366 1.2954-1.1938t1.3462-1.1176q0.254-0.1778 0.5334-0.2794t0.4826-0.1016q1.8288 0.0508 3.6576 0.4572t3.6576 1.016q0.7112 0.254 1.4478 0.4572t1.397 0.5842q0.5588 0.2794 0.7874 0.8382t0.3556 1.1684zm-8.8646 8.128q0-0.3302 0-1.143 0.0254-0.8128 0-1.7272 0-0.9144-0.0254-1.7272-0.0254-0.8382-0.1016-1.1938h-0.2032q-0.0762 0.0762-0.1016 0.4064-0.0254 0.3048-0.0254 0.7366t0.0254 0.9144 0.0254 0.9144q0.0254 0.4318 0.0254 0.7366t-0.0254 0.381q-0.1524 0.3048-0.4064 0.508-0.254 0.1778-0.5334 0.3302t-0.5334 0.3302q-0.2286 0.1778-0.3302 0.4572-0.127 0.3302 0.0508 0.5334t0.4826 0.3302 0.6604 0.2286q0.3556 0.0762 0.6096 0.1524 0.127 0.0254 0.2032-0.0762 0.0762-0.127 0.127-0.3048 0.0508-0.2032 0.0508-0.4064 0.0254-0.2286 0.0254-0.381zm5.2832 0.5334q0.127-0.6096 0.1016-1.1938 0-0.6096-0.0762-1.1938-0.0508-0.6096-0.127-1.1938-0.0762-0.6096-0.0762-1.2192 0-0.6604-0.127-1.3208-0.1016-0.6604-0.508-1.1938-0.508-0.5588-1.2446-0.7112-0.7112-0.1778-1.4732-0.4318-0.4064-0.0508-0.6096 0.2286-0.1778 0.2794-0.1016 0.5842 0 0.254 0.0762 0.5588 0.0762 0.2794 0.0254 0.5842-0.2032 0.9144-0.2286 1.8288-0.0254 0.889 0 1.778 0.0508 0.889 0.1016 1.778 0.0508 0.8636 0.0254 1.7526 0 0.2794 0.127 0.6096t0.381 0.4826q0.6604 0.4064 1.2954 0.762 0.635 0.3302 1.3462 0.6604 0.3556 0.0762 0.635-0.1524 0.3048-0.254 0.381-0.5588 0.1778-0.6096 0.1016-1.2192t-0.0254-1.2192zm13.691 2.3876q0 0.3556 0.3302 0.5842 0.3302 0.2032 0.5334 0.4826 0 0.0508 0.0762 0.1778 0.0762 0.1016 0.0254 0.2286-0.4826 0.6604-1.016 1.27-0.508 0.6096-1.0922 0.8128-0.1778 0.0508-0.3302-0.0762t-0.3048-0.3302-0.3302-0.4064-0.3556-0.3302q-0.5588-0.2794-1.0668-0.1778-0.508 0.2794-0.9906 0.6604t-1.016 0.6604q-0.2032 0.1016-0.4572 0.0254-0.2286-0.0508-0.4064-0.1016-0.3302-0.254-0.7112-0.381-0.381-0.1016-0.762-0.2032-0.3556-0.1016-0.6858-0.2794-0.3048-0.1778-0.508-0.5842-0.0508-0.1016 0-0.2286 0.0508-0.1524 0.127-0.3048 0.1016-0.1524 0.1778-0.3048 0.1016-0.1524 0.127-0.3302 0.1016-0.5588 0.1016-1.143 0.0254-0.5842 0-1.143 0-0.5842-0.0254-1.143 0-0.5842 0.0508-1.1684 0.0508-0.7112 0-1.3716t-0.3556-1.2954q-0.1016-0.127-0.0508-0.3048 0.0762-0.2032 0.127-0.254 1.1684-0.7366 2.2098-1.4986 1.0414-0.7874 2.159-1.4986 1.0668 0.6604 2.1844 1.1176 1.1176 0.4318 2.3114 0.508 0.1524 0.0508 0.2794 0.2032t0.0762 0.381q-0.0762 0.254-0.2794 0.4572-0.1778 0.2032-0.2286 0.4064-0.2032 0.6604-0.2032 1.2954t0 1.2954q-0.0508 1.0668 0 2.159 0.0762 1.0668 0.2794 2.1336zm-2.8956 0.5588q0.127-1.6256 0.2032-3.2258 0.1016-1.6002-0.0254-3.2766-0.0762-0.127-0.254-0.254-0.1524-0.1524-0.2794-0.2032-0.6096-0.127-1.1176-0.3302-0.4826-0.2032-1.0922-0.1524-0.2794 0.0762-0.4064 0.3302-0.1016 0.254-0.0254 0.5334 0.127 0.508 0.127 1.0414t-0.0508 1.0922q-0.0254 0.5334-0.0508 1.0922-0.0254 0.5334 0.0508 1.0668 0 0.381-0.0254 0.7366t0.0254 0.7112q0.0762 0.4318 0.3302 0.7112t0.6096 0.4318 0.762 0.2032q0.4064 0.0254 0.762 0 0.127-0.1016 0.2794-0.2286 0.1778-0.127 0.1778-0.2794zm11.176 0.7366q-0.3302 0.3556-0.6604 0.7874-0.3302 0.4064-0.7112 0.7366-0.3556 0.3302-0.8128 0.5334-0.4318 0.2032-0.9652 0.127-0.4572-0.1016-0.7874-0.3048-0.3302-0.1778-0.6604-0.3556-0.3048-0.2032-0.6604-0.3302t-0.8382-0.127q-0.1524 0-0.3302-0.127t-0.1778-0.254q0-0.1778 0.1016-0.3302 0.127-0.1524 0.254-0.2794 0.127-0.1524 0.254-0.254 0.127-0.127 0.1524-0.2794 0.254-0.9144 0.3556-1.7272 0.127-0.8128 0.127-1.6002 0.0254-0.8128-0.0508-1.651t-0.2286-1.7526q0-0.1524-0.127-0.254-0.127-0.127-0.3048-0.2286-0.1524-0.1016-0.2794-0.1778-0.127-0.1016-0.127-0.2286 0-0.381 0.1524-0.7366 0.1778-0.3556 0.4318-0.6858 0.2794-0.3556 0.5842-0.6858 0.3302-0.3302 0.6096-0.635 0.6604 0.1524 1.143 0.5334 0.508 0.381 0.889 0.889 0.0762 0.0762 0.127 0.1778t0.1016 0.2032 0.127 0.1524q0.0762 0.0254 0.2032-0.0508 0.2794-0.1524 0.508-0.4064 0.2286-0.2794 0.4572-0.5588 0.254-0.2794 0.508-0.4826 0.2794-0.2286 0.635-0.254 0.4826 0.635 0.889 1.397 0.4318 0.7366 0.4318 1.4478-0.0762 0.7366-0.508 1.4478t-1.016 1.2954q-0.127 0.1016-0.3302 0.0508-0.1778-0.0762-0.2286-0.127-0.1524-0.2794-0.254-0.5842t-0.254-0.5842q-0.127-0.3048-0.3048-0.5334t-0.4572-0.381q-0.2032-0.1524-0.3556-0.1016t-0.254 0.2032q-0.0762 0.127-0.127 0.3302-0.0254 0.1778-0.0254 0.3302-0.0254 1.2192-0.1016 2.3876-0.0508 1.143 0.2286 2.4384 0.0254 0.0762-0.0508 0.1524-0.0508 0.0762-0.127 0.1524t-0.127 0.1524q-0.0254 0.0508 0.0508 0.0762 0.381 0.1524 0.6604 0.2794 0.3048 0.127 0.6096 0.2286 0.3048 0.0762 0.635 0.127 0.3556 0.0254 0.8382-0.0508 0.127-0.0508 0.1778 0.1524t0 0.3302zm12.598-9.9314q0.1778-0.0254 0.2794 0.0762 0.127 0.1016 0.1524 0.2794 0.0254 0.1524-0.0254 0.3556-0.0508 0.1778-0.2032 0.3302-0.5588 0.5334-1.1684 1.016-0.5842 0.4826-1.016 1.0668-0.2286 0.2794-0.4318 0.6858-0.2032 0.381-0.0508 0.6604 0.1778 0.4572 0.4572 0.8382 0.3048 0.381 0.6096 0.762 0.3302 0.381 0.5842 0.8128 0.2794 0.4064 0.4318 0.9398 0.1016 0.3556 0.1524 0.762 0.0762 0.381 0.1524 0.762 0.1016 0.5334 0.0508 1.0414-0.0508 0.4826-0.2032 0.9906-0.127 0.4826-0.3302 0.9652-0.2032 0.508-0.381 0.9906-0.2794 0.8636-0.9398 1.5494-0.6604 0.6858-1.4224 1.1176-0.8128 0.508-1.6764 0.9144-0.8382 0.4318-1.7526 0.4318-0.2286-0.1016-0.4064-0.3048-0.1524-0.1778-0.1016-0.4572 0.1016-0.1524 0.2032-0.2286 0.127-0.0762 0.1778-0.0762 1.016 0 1.905-0.508 0.9144-0.4826 1.651-1.2192 0.3556-0.4318 0.5842-0.9652t0.3556-1.1176q0.1524-0.8636-0.1016-1.6002-0.2286-0.7366-0.6604-1.4478-0.2794-0.508-0.6604-0.8636-0.3556-0.381-0.7874-0.7366-0.3556-0.2794-0.8128-0.3302-0.4318-0.0762-0.7112-0.3556 0.2286-0.5334 0.5842-0.9652 0.3556-0.4572 0.7366-0.889t0.7366-0.8636q0.381-0.4572 0.6096-0.9906v-0.381q-0.2032-0.2794-0.508-0.4064t-0.6604-0.1524q-0.3302-0.0254-0.7112 0.0254-0.3556 0.0254-0.6604 0.0508-0.1524 0-0.3556 0.1778-0.1778 0.1778-0.2286 0.3048-0.1524 0.5334-0.2032 1.0668-0.0254 0.5334-0.0254 1.0668t0 1.0668-0.0762 1.0668q0 0.508 0.1016 0.9652 0.127 0.4572 0.2032 0.9398 0.127 0.3302 0.381 0.508 0.1778 0.1016 0.4826 0.2032t0.5588 0.254q0.2794 0.127 0.381 0.3048 0.127 0.1524-0.0762 0.381-0.508 0.5842-1.0668 1.0668-0.5588 0.508-1.143 1.016-0.3048 0.1016-0.5842 0-0.3556-0.2286-0.6604-0.4572-0.3048-0.2032-0.6604-0.4826-0.2286-0.1524-0.508-0.2032-0.254-0.0508-0.508-0.127-0.2286-0.0762-0.4318-0.1778-0.2032-0.127-0.2794-0.381-0.0762-0.2032 0-0.3556 0.1016-0.1524 0.2286-0.2794 0.1524-0.127 0.3048-0.2286 0.1524-0.127 0.2286-0.2794 0.5842-1.7272 0.6096-3.4798t-0.1016-3.556q-0.0508-0.1778-0.2286-0.2032-0.1778-0.0508-0.381-0.0762t-0.381-0.0762q-0.1524-0.0762-0.1524-0.3048-0.0508-0.2794 0.0762-0.4826 0.127-0.2286 0.3048-0.4318 0.2032-0.2032 0.381-0.4064 0.1778-0.2286 0.254-0.508 0.0508-0.2794 0.0254-0.5588-0.0254-0.3048-0.0508-0.5842t-0.0254-0.508q0.0254-0.254 0.1778-0.4318 0.4826-0.7366 1.2446-1.2446 0.762-0.5334 1.6764-0.7366 0.1016 0 0.2032 0.1016t0.1016 0.1524q0.0254 0.4318-0.0762 0.889-0.0762 0.4572-0.127 0.9144-0.0508 0.4318 0 0.8636 0.0762 0.4064 0.4064 0.762 1.4986-0.0508 2.9718-0.0254 1.4986 0 2.9972-0.0508zm18.644 8.7884q0.127 0 0.254 0.1778 0.1524 0.1524 0.1524 0.2032-0.1778 0.508-0.508 0.889-0.3302 0.3556-0.7366 0.635-0.381 0.2794-0.8128 0.5334-0.4064 0.254-0.7874 0.5334-0.2032 0.1524-0.4064 0.3048-0.1778 0.1778-0.3556 0.3302t-0.3556 0.254-0.4064 0.1016q-0.4572 0.0508-0.9144-0.0508-0.4318-0.1016-0.8636-0.2794-0.4318-0.1524-0.8636-0.3302t-0.8382-0.3302q-0.7112-0.2286-1.5494-0.635-0.8128-0.4064-1.4986-0.8128-0.762-0.3048-1.4732-0.6096-0.7112-0.3302-1.1684-1.016-0.2032-0.3048-0.0254-0.5842 0.2032-0.3048 0.3302-0.5588 0.1778-0.4318 0.127-0.9398-0.0254-0.5334 0.1016-1.0668 0.0508-0.8128 0.0254-1.6002-0.0254-0.8128-0.0254-1.6764 0-1.3716-0.2032-2.7686-0.2032-1.4224-0.2032-2.794 1.6764-0.8382 3.1496-1.905 1.4732-1.0922 3.1496-2.159 0.2286-0.1016 0.4318-0.1524 0.2286-0.0508 0.381 0.0254 0.6858 0.4318 1.3716 0.7112 0.7112 0.254 1.397 0.4826 0.7112 0.2286 1.397 0.508 0.7112 0.2794 1.4224 0.7366 0.0762 0.1016 0.0254 0.2286t-0.127 0.1778q-0.2794 0.3048-0.4826 0.635-0.1778 0.3048-0.381 0.635-0.1778 0.3048-0.4064 0.5842-0.2032 0.2794-0.508 0.508-0.1016 0.0762-0.254 0.1016t-0.3048 0.0508q-0.1524 0-0.2794 0.0508-0.1016 0.0508-0.127 0.2032-0.254 0.9906-0.3556 1.9558-0.0762 0.9652-0.1016 1.9304 0 0.9652 0.0508 1.9304 0.0508 0.9398 0.1016 1.905 0 0.4318-0.0508 0.8636-0.0508 0.4064-0.0762 0.8128 0 0.4064 0.1016 0.7874 0.1016 0.3556 0.4064 0.6604 0.2794 0.3048 0.635 0.3556 0.381 0.0508 0.7874-0.0254 0.4318-0.0762 0.8382-0.2286 0.4318-0.1524 0.8128-0.2794zm-7.874-6.3246q0.127-1.5748 0.0508-3.1242-0.0508-1.5494-0.0508-3.175 0-0.1524-0.0254-0.3556 0-0.2286-0.0762-0.4064-0.0508-0.2032-0.1778-0.3048t-0.381-0.0254q-0.3048 0.0508-0.5588 0.4318-0.254 0.3556-0.254 0.6604-0.127 0.6858-0.127 1.3716 0 0.6604 0.0254 1.3208 0.0508 0.6604 0.0762 1.3208 0.0508 0.635 0.0254 1.27-0.0508 1.2192 0 2.5146 0.0762 1.27 0.0762 2.4892 0 0.1524 0.1778 0.3556 0.2032 0.1778 0.3302 0.254 0.0508 0 0.1778-0.0762 0.1524-0.0762 0.254-0.254 0.2794-1.0668 0.3048-2.1082 0.0254-1.0668 0.1524-2.159zm3.6068 5.4102q-0.0508-0.2286-0.0254-0.4826 0.0508-0.254 0.0762-0.4826 0.0508-0.254 0.0508-0.508t-0.1016-0.4826q-0.1524-0.4318-0.1524-0.8382 0.0254-0.4064 0.0254-0.8636 0.1016-1.6764 0.1524-3.4036t0.0508-3.429q0-0.1524-0.1016-0.1778-0.0762-0.0254-0.2032 0.0254-0.1016 0.0508-0.2032 0.1524-0.0762 0.1016-0.0762 0.2032 0 1.6764-0.127 3.3274-0.1016 1.6256 0.127 3.302 0 0.3048 0.0254 0.6604 0.0508 0.3302 0.0508 0.6604-0.0508 0.2286-0.1524 0.4318t-0.3556 0.2794q-0.3302 0.0762-0.7366 0.1524-0.381 0.0762-0.7112 0.2286t-0.5588 0.4318q-0.2286 0.254-0.2286 0.7112 0.6096 0.4318 1.2954 0.6604 0.6858 0.2032 1.3716 0.3556 0.1778 0.0762 0.2794 0 0.127-0.0762 0.1778-0.2286 0.0762-0.1524 0.0762-0.3302 0-0.2032-0.0254-0.3556zm14.275 0.762q0 0.3556 0.3302 0.5842 0.3302 0.2032 0.5334 0.4826 0 0.0508 0.0762 0.1778 0.0762 0.1016 0.0254 0.2286-0.4826 0.6604-1.016 1.27-0.508 0.6096-1.0922 0.8128-0.1778 0.0508-0.3302-0.0762t-0.3048-0.3302-0.3302-0.4064-0.3556-0.3302q-0.5588-0.2794-1.0668-0.1778-0.508 0.2794-0.9906 0.6604t-1.016 0.6604q-0.2032 0.1016-0.4572 0.0254-0.2286-0.0508-0.4064-0.1016-0.3302-0.254-0.7112-0.381-0.381-0.1016-0.762-0.2032-0.3556-0.1016-0.6858-0.2794-0.3048-0.1778-0.508-0.5842-0.0508-0.1016 0-0.2286 0.0508-0.1524 0.127-0.3048 0.1016-0.1524 0.1778-0.3048 0.1016-0.1524 0.127-0.3302 0.1016-0.5588 0.1016-1.143 0.0254-0.5842 0-1.143 0-0.5842-0.0254-1.143 0-0.5842 0.0508-1.1684 0.0508-0.7112 0-1.3716t-0.3556-1.2954q-0.1016-0.127-0.0508-0.3048 0.0762-0.2032 0.127-0.254 1.1684-0.7366 2.2098-1.4986 1.0414-0.7874 2.159-1.4986 1.0668 0.6604 2.1844 1.1176 1.1176 0.4318 2.3114 0.508 0.1524 0.0508 0.2794 0.2032t0.0762 0.381q-0.0762 0.254-0.2794 0.4572-0.1778 0.2032-0.2286 0.4064-0.2032 0.6604-0.2032 1.2954t0 1.2954q-0.0508 1.0668 0 2.159 0.0762 1.0668 0.2794 2.1336zm-2.8956 0.5588q0.127-1.6256 0.2032-3.2258 0.1016-1.6002-0.0254-3.2766-0.0762-0.127-0.254-0.254-0.1524-0.1524-0.2794-0.2032-0.6096-0.127-1.1176-0.3302-0.4826-0.2032-1.0922-0.1524-0.2794 0.0762-0.4064 0.3302-0.1016 0.254-0.0254 0.5334 0.127 0.508 0.127 1.0414t-0.0508 1.0922q-0.0254 0.5334-0.0508 1.0922-0.0254 0.5334 0.0508 1.0668 0 0.381-0.0254 0.7366t0.0254 0.7112q0.0762 0.4318 0.3302 0.7112t0.6096 0.4318 0.762 0.2032q0.4064 0.0254 0.762 0 0.127-0.1016 0.2794-0.2286 0.1778-0.127 0.1778-0.2794zm11.176 0.7366q-0.3302 0.3556-0.6604 0.7874-0.3302 0.4064-0.7112 0.7366-0.3556 0.3302-0.8128 0.5334-0.4318 0.2032-0.9652 0.127-0.4572-0.1016-0.7874-0.3048-0.3302-0.1778-0.6604-0.3556-0.3048-0.2032-0.6604-0.3302t-0.8382-0.127q-0.1524 0-0.3302-0.127t-0.1778-0.254q0-0.1778 0.1016-0.3302 0.127-0.1524 0.254-0.2794 0.127-0.1524 0.254-0.254 0.127-0.127 0.1524-0.2794 0.254-0.9144 0.3556-1.7272 0.127-0.8128 0.127-1.6002 0.0254-0.8128-0.0508-1.651t-0.2286-1.7526q0-0.1524-0.127-0.254-0.127-0.127-0.3048-0.2286-0.1524-0.1016-0.2794-0.1778-0.127-0.1016-0.127-0.2286 0-0.381 0.1524-0.7366 0.1778-0.3556 0.4318-0.6858 0.2794-0.3556 0.5842-0.6858 0.3302-0.3302 0.6096-0.635 0.6604 0.1524 1.143 0.5334 0.508 0.381 0.889 0.889 0.0762 0.0762 0.127 0.1778t0.1016 0.2032 0.127 0.1524q0.0762 0.0254 0.2032-0.0508 0.2794-0.1524 0.508-0.4064 0.2286-0.2794 0.4572-0.5588 0.254-0.2794 0.508-0.4826 0.2794-0.2286 0.635-0.254 0.4826 0.635 0.889 1.397 0.4318 0.7366 0.4318 1.4478-0.0762 0.7366-0.508 1.4478t-1.016 1.2954q-0.127 0.1016-0.3302 0.0508-0.1778-0.0762-0.2286-0.127-0.1524-0.2794-0.254-0.5842t-0.254-0.5842q-0.127-0.3048-0.3048-0.5334t-0.4572-0.381q-0.2032-0.1524-0.3556-0.1016t-0.254 0.2032q-0.0762 0.127-0.127 0.3302-0.0254 0.1778-0.0254 0.3302-0.0254 1.2192-0.1016 2.3876-0.0508 1.143 0.2286 2.4384 0.0254 0.0762-0.0508 0.1524-0.0508 0.0762-0.127 0.1524t-0.127 0.1524q-0.0254 0.0508 0.0508 0.0762 0.381 0.1524 0.6604 0.2794 0.3048 0.127 0.6096 0.2286 0.3048 0.0762 0.635 0.127 0.3556 0.0254 0.8382-0.0508 0.127-0.0508 0.1778 0.1524t0 0.3302zm2.0828-0.0762q0.2032-0.2794 0.3302-0.508 0.1524-0.2286 0.2286-0.508 0.1524-1.0922 0.1778-2.1082 0.0508-1.016 0.1016-2.0066 0-0.7366-0.0508-1.4224t-0.3302-1.3208q-0.1524-0.2286-0.4064-0.3302-0.254-0.127-0.254-0.3556 0.0254-0.4318 0.254-0.7366t0.5334-0.5334q0.3302-0.2286 0.7112-0.381 0.381-0.1778 0.6858-0.3302 0.254-0.0762 0.4826 0 0.254 0.0762 0.4572 0.2286 0.2286 0.1524 0.381 0.381 0.1778 0.2032 0.3048 0.4064 0.1016 0.1524 0.0762 0.3048 0 0.127-0.0762 0.2794-0.0508 0.1524-0.127 0.3302-0.0508 0.1778-0.0508 0.3556 0 0.3556-0.0762 0.7112-0.0762 0.3302-0.127 0.6858-0.127 0.7366-0.0762 1.4478 0.0762 0.7112 0.0762 1.524-0.0762 0.635-0.0254 1.3208 0.0762 0.6858 0.2286 1.3462 0.127 0.3556 0.4064 0.5588 0.3048 0.2032 0.5334 0.4826v0.381q-0.4318 0.5842-0.8382 1.1176t-0.9906 0.9652q-0.7112-0.3556-1.3208-0.8382-0.5842-0.4826-1.2192-1.0668zm0.254-11.887q-0.0508 0.0508-0.127-0.0254-0.0254-0.0254-0.0508-0.0762 0.3556-0.3556 0.6604-0.7366 0.3302-0.4064 0.6604-0.7874t0.6858-0.6858q0.381-0.3302 0.8382-0.5334 0.1524-0.0762 0.3556-0.1778t0.4064-0.1524q0.2032-0.0762 0.381-0.0254 0.1778 0.0254 0.3048 0.2286-0.5842 0.7366-1.3462 1.2192-0.7366 0.4572-1.4986 0.889-0.381 0.2286-0.6858 0.4064t-0.5842 0.4572zm14.783 3.2004q0.0762 0.127-0.0254 0.2794-0.1016 0.127-0.254 0.2794-0.127 0.1524-0.2794 0.3302-0.127 0.1778-0.127 0.3556-0.127 1.7272-0.0508 3.3782t0.1778 3.3782q0 0.127-0.127 0.2794-0.127 0.127-0.254 0.2032-0.2794 0.0508-0.5588 0-0.2794-0.0762-0.508 0-0.3556 0.2032-0.7112 0.508t-0.7112 0.4572q-0.3556 0.1778-0.6858 0.4064-0.3302 0.2032-0.6604 0.4064t-0.6858 0.3302q-0.3302 0.1524-0.7366 0.1778-1.016-0.7112-2.032-1.2446-0.9906-0.5588-1.8542-1.4224-0.1524-0.127 0.0762-0.381t0.381-0.4826q0.127-0.2794 0.1524-0.6096t0.0254-0.6096q0-0.508 0.0508-1.016t-0.0508-1.016q-0.0508-0.9144-0.0254-1.8796t0.0254-1.9304q0-0.9906-0.1016-1.9304t-0.1524-1.9558q-0.0254-0.1524-0.0762-0.3048t-0.0762-0.2794q-0.0254-0.1524 0-0.2794 0.0508-0.127 0.2286-0.2032 0.635-0.2286 1.1176-0.5588 0.508-0.3556 0.9398-0.762 0.4572-0.4064 0.889-0.8128 0.4572-0.4318 1.0414-0.8382 0.1778-0.1016 0.381-0.2032t0.381-0.127q0.1778-0.0508 0.3302 0t0.254 0.254q0.127 0.381 0.2032 0.7366t-0.0254 0.7112q-0.3556 1.4478-0.889 2.7432-0.508 1.27-1.27 2.4892-0.1524 0.2286 0 0.4826 0.1778 0.254 0.4572 0.2032 0.4064-0.1524 0.7112-0.4318t0.5842-0.5588q0.3048-0.2794 0.6096-0.508 0.3302-0.254 0.762-0.3302 0.4064 0.2794 0.8636 0.508t0.889 0.4826q0.4572 0.2286 0.8128 0.5334 0.381 0.3048 0.5842 0.762zm-5.8166-6.858q-0.4318 0.4572-0.5842 1.016t-0.1778 1.1684q-0.0254 0.5842 0.0254 1.2192 0.0762 0.6096 0.0762 1.1684h0.2794q0.2794-0.5842 0.4064-1.143 0.1524-0.5842 0.2794-1.2192 0.0508-0.508 0.127-1.016 0.1016-0.508 0.0508-1.016-0.0762-0.127-0.254-0.1778-0.1524-0.0508-0.2286 0zm2.0828 11.049q-0.0254-0.3556 0.0508-0.6858 0.0762-0.3556 0.1524-0.6858 0.1016-0.3302 0.127-0.635 0.0254-0.3302-0.127-0.6604-0.1524-0.3048-0.4318-0.508-0.254-0.2286-0.6096-0.3556-0.3302-0.127-0.7112-0.1524-0.381-0.0508-0.7366-0.0254-0.127 0-0.1778 0.1524-0.0254 0.1524-0.0762 0.2286-0.2286 1.3716-0.2794 2.7178-0.0254 1.3462-0.0254 2.6924 0 0.1524 0.0254 0.4318 0.0508 0.2794 0.2794 0.3302 0.3048 0.0762 0.5842 0.2286t0.5334 0.3048q0.2794 0.127 0.5588 0.254 0.2794 0.1016 0.6096 0.1016 0.3556-0.8636 0.3556-1.8288t-0.1016-1.905zm14.453-4.191q0.0762 0.127-0.0254 0.2794-0.1016 0.127-0.254 0.2794-0.127 0.1524-0.2794 0.3302-0.127 0.1778-0.127 0.3556-0.127 1.7272-0.0508 3.3782t0.1778 3.3782q0 0.127-0.127 0.2794-0.127 0.127-0.254 0.2032-0.2794 0.0508-0.5588 0-0.2794-0.0762-0.508 0-0.3556 0.2032-0.7112 0.508t-0.7112 0.4572q-0.3556 0.1778-0.6858 0.4064-0.3302 0.2032-0.6604 0.4064t-0.6858 0.3302q-0.3302 0.1524-0.7366 0.1778-1.016-0.7112-2.032-1.2446-0.9906-0.5588-1.8542-1.4224-0.1524-0.127 0.0762-0.381t0.381-0.4826q0.127-0.2794 0.1524-0.6096t0.0254-0.6096q0-0.508 0.0508-1.016t-0.0508-1.016q-0.0508-0.9144-0.0254-1.8796t0.0254-1.9304q0-0.9906-0.1016-1.9304t-0.1524-1.9558q-0.0254-0.1524-0.0762-0.3048t-0.0762-0.2794q-0.0254-0.1524 0-0.2794 0.0508-0.127 0.2286-0.2032 0.635-0.2286 1.1176-0.5588 0.508-0.3556 0.9398-0.762 0.4572-0.4064 0.889-0.8128 0.4572-0.4318 1.0414-0.8382 0.1778-0.1016 0.381-0.2032t0.381-0.127q0.1778-0.0508 0.3302 0t0.254 0.254q0.127 0.381 0.2032 0.7366t-0.0254 0.7112q-0.3556 1.4478-0.889 2.7432-0.508 1.27-1.27 2.4892-0.1524 0.2286 0 0.4826 0.1778 0.254 0.4572 0.2032 0.4064-0.1524 0.7112-0.4318t0.5842-0.5588q0.3048-0.2794 0.6096-0.508 0.3302-0.254 0.762-0.3302 0.4064 0.2794 0.8636 0.508t0.889 0.4826q0.4572 0.2286 0.8128 0.5334 0.381 0.3048 0.5842 0.762zm-5.8166-6.858q-0.4318 0.4572-0.5842 1.016t-0.1778 1.1684q-0.0254 0.5842 0.0254 1.2192 0.0762 0.6096 0.0762 1.1684h0.2794q0.2794-0.5842 0.4064-1.143 0.1524-0.5842 0.2794-1.2192 0.0508-0.508 0.127-1.016 0.1016-0.508 0.0508-1.016-0.0762-0.127-0.254-0.1778-0.1524-0.0508-0.2286 0zm2.0828 11.049q-0.0254-0.3556 0.0508-0.6858 0.0762-0.3556 0.1524-0.6858 0.1016-0.3302 0.127-0.635 0.0254-0.3302-0.127-0.6604-0.1524-0.3048-0.4318-0.508-0.254-0.2286-0.6096-0.3556-0.3302-0.127-0.7112-0.1524-0.381-0.0508-0.7366-0.0254-0.127 0-0.1778 0.1524-0.0254 0.1524-0.0762 0.2286-0.2286 1.3716-0.2794 2.7178-0.0254 1.3462-0.0254 2.6924 0 0.1524 0.0254 0.4318 0.0508 0.2794 0.2794 0.3302 0.3048 0.0762 0.5842 0.2286t0.5334 0.3048q0.2794 0.127 0.5588 0.254 0.2794 0.1016 0.6096 0.1016 0.3556-0.8636 0.3556-1.8288t-0.1016-1.905zm10.973 4.191q0.2794 0.0762 0.6096-0.0762 0.3302-0.1778 0.6096-0.127 0.0762 0.1016 0.1778 0.2286 0.1016 0.1016 0 0.1524-0.7112 0.6604-1.3462 1.3462-0.6096 0.6604-1.397 1.1684-0.9906-0.2794-1.8542-0.7112-0.8636-0.4572-1.8796-0.7366-0.3556-0.0508-0.7112-0.0508-0.3302 0-0.6858-0.2032-0.2032-0.2032-0.2032-0.4318 0.2794-0.5334 0.381-1.0922 0.1016-0.5842 0.1016-1.1684 0-0.6096-0.0254-1.1938-0.0254-0.6096 0-1.1938 0.1016-0.9906-0.0254-1.9558-0.1016-0.9652 0.0254-1.9558 0.1016-0.2032 0.1778-0.4064 0.1016-0.2032 0.3302-0.254 0.4826-0.1778 0.889-0.4318 0.4318-0.2794 0.8382-0.5842t0.8128-0.6096q0.4064-0.3302 0.889-0.5842 0.8636 0.8128 1.6256 1.6764 0.7874 0.8382 1.6002 1.7526 0.127 0.1778 0.2794 0.381 0.1524 0.1778 0.1016 0.381-0.4064 0.6096-0.8636 1.1176t-0.9398 0.9652-0.9906 0.9144q-0.508 0.4318-1.016 0.9398-0.2286 0.127-0.4826 0.2032-0.254 0.0508-0.381 0.254-0.1524 0.4318 0.0508 0.8636t0.635 0.5842q0.635 0.2032 1.27 0.4318 0.6604 0.2032 1.397 0.4064zm-3.3528-7.0612q-0.2032 0.9652-0.0508 1.8542 0.1524 0.8636 0.1524 1.778 0 0.0762 0.1016 0.1016 0.127 0 0.1778 0 0.2032-0.254 0.4572-0.4826t0.4572-0.4572q0.2032-0.254 0.3302-0.508 0.127-0.2794 0.0762-0.635-0.0254-0.2794-0.1778-0.508-0.127-0.2286-0.3302-0.4064-0.2032-0.2032-0.4318-0.381-0.2032-0.2032-0.381-0.4318-0.0508-0.0762-0.1778 0t-0.2032 0.0762zm14.402 6.1468q0 0.3556 0.3302 0.5842 0.3302 0.2032 0.5334 0.4826 0 0.0508 0.0762 0.1778 0.0762 0.1016 0.0254 0.2286-0.4826 0.6604-1.016 1.27-0.508 0.6096-1.0922 0.8128-0.1778 0.0508-0.3302-0.0762t-0.3048-0.3302-0.3302-0.4064-0.3556-0.3302q-0.5588-0.2794-1.0668-0.1778-0.508 0.2794-0.9906 0.6604t-1.016 0.6604q-0.2032 0.1016-0.4572 0.0254-0.2286-0.0508-0.4064-0.1016-0.3302-0.254-0.7112-0.381-0.381-0.1016-0.762-0.2032-0.3556-0.1016-0.6858-0.2794-0.3048-0.1778-0.508-0.5842-0.0508-0.1016 0-0.2286 0.0508-0.1524 0.127-0.3048 0.1016-0.1524 0.1778-0.3048 0.1016-0.1524 0.127-0.3302 0.1016-0.5588 0.1016-1.143 0.0254-0.5842 0-1.143 0-0.5842-0.0254-1.143 0-0.5842 0.0508-1.1684 0.0508-0.7112 0-1.3716t-0.3556-1.2954q-0.1016-0.127-0.0508-0.3048 0.0762-0.2032 0.127-0.254 1.1684-0.7366 2.2098-1.4986 1.0414-0.7874 2.159-1.4986 1.0668 0.6604 2.1844 1.1176 1.1176 0.4318 2.3114 0.508 0.1524 0.0508 0.2794 0.2032t0.0762 0.381q-0.0762 0.254-0.2794 0.4572-0.1778 0.2032-0.2286 0.4064-0.2032 0.6604-0.2032 1.2954t0 1.2954q-0.0508 1.0668 0 2.159 0.0762 1.0668 0.2794 2.1336zm-2.8956 0.5588q0.127-1.6256 0.2032-3.2258 0.1016-1.6002-0.0254-3.2766-0.0762-0.127-0.254-0.254-0.1524-0.1524-0.2794-0.2032-0.6096-0.127-1.1176-0.3302-0.4826-0.2032-1.0922-0.1524-0.2794 0.0762-0.4064 0.3302-0.1016 0.254-0.0254 0.5334 0.127 0.508 0.127 1.0414t-0.0508 1.0922q-0.0254 0.5334-0.0508 1.0922-0.0254 0.5334 0.0508 1.0668 0 0.381-0.0254 0.7366t0.0254 0.7112q0.0762 0.4318 0.3302 0.7112t0.6096 0.4318 0.762 0.2032q0.4064 0.0254 0.762 0 0.127-0.1016 0.2794-0.2286 0.1778-0.127 0.1778-0.2794zm5.8674-5.0546q0.0254-0.7112-0.254-1.3716-0.254-0.6604-0.889-1.0922 0-0.0508-0.1016-0.1778-0.0762-0.127-0.0254-0.2032 0.2794-0.2794 0.5334-0.635 0.254-0.381 0.5334-0.7112t0.5842-0.5588q0.3302-0.254 0.762-0.2794 0.1524 0.254 0.381 0.381 0.2286 0.1016 0.4572 0.1778t0.4318 0.1778q0.2286 0.0762 0.3302 0.3048 0.127 0.2794 0.1524 0.6096 0.0508 0.3302 0.3302 0.3302 0.4572-0.0762 0.8382-0.2794 0.381-0.2286 0.7366-0.508 0.3556-0.3048 0.7112-0.5842 0.3556-0.3048 0.762-0.5334h0.4572q0.2286 0.1524 0.381 0.3556 0.1778 0.1778 0.381 0.2286 0.254 0.0762 0.6096 0.1524 0.3556 0.0508 0.6604 0.1778 0.3048 0.1016 0.4826 0.3048t0.0762 0.508q-0.0762 0.3556-0.2794 0.7112t-0.2032 0.7366q-0.1524 1.5748-0.2286 3.1496-0.0762 1.5494 0.1524 3.1242 0.0254 0.254 0.1778 0.4064t0.3302 0.3048q0.1778 0.127 0.3302 0.2794 0.1524 0.127 0.1778 0.3556 0.0762 0.381-0.1016 0.6604t-0.4826 0.5334q-0.2794 0.254-0.6096 0.5334-0.3048 0.2794-0.508 0.635-0.1524 0.127-0.3302 0.127-0.1778 0.0254-0.3302-0.0254-0.5842-0.4318-1.1176-0.8382-0.508-0.4318-0.7874-1.0668-0.2286-0.3556-0.0762-0.7112 0.1778-0.3556 0.2794-0.7366 0.127-1.5748 0.1524-3.1242 0.0508-1.5748-0.1524-3.1496-0.5842-0.3556-1.27-0.508-0.6604-0.1524-1.3208-0.1524-0.0508 0-0.2286 0.1524-0.1524 0.1524-0.1524 0.2286 0 1.6002-0.0762 3.0988-0.0508 1.4986 0.1778 3.0734 0 0.2032 0.1016 0.381 0.1016 0.1524 0.2286 0.3048t0.2286 0.3048q0.1016 0.127 0.1016 0.2794 0 0.381-0.2032 0.7112-0.1778 0.3302-0.4572 0.635t-0.5842 0.5842q-0.3048 0.3048-0.5588 0.6096-0.0762 0.1016-0.254 0.1016-0.1524 0-0.2286-0.1016-0.254-0.2286-0.5334-0.4318-0.2794-0.1778-0.5588-0.381-0.2794-0.1778-0.5334-0.381-0.254-0.2286-0.4826-0.508 0.3302-0.7874 0.4826-1.6256 0.1778-0.8382 0.254-1.6764t0.0762-1.6764q0.0254-0.8636 0.0762-1.7018z" style="paint-order:markers stroke fill" aria-label="The Dark Caribbean"/>
   <path id="text2" d="m68.171 56.065 0.9144-0.2159 1.3843-3.7719h0.0635c0.6477 1.9812 1.1811 3.8354 1.2065 3.9878l0.9017-0.2159 2.0955-5.2832c0.1397-0.3937 0.254-0.4699 0.635-0.4953l0.0762-0.5207s-0.635 0.0254-1.1303 0.0254c-0.6477 0-1.4478-0.0635-1.4478-0.0635l-0.0762 0.4826 0.0254 0.0508h0.4826c0.4826 0 0.6604 0.0889 0.6604 0.3302 0 0.2921-1.1176 3.3274-1.5748 4.4577h-0.0889s-1.1938-4.0894-1.1938-4.4323c0-0.2794 0.1651-0.3429 0.8763-0.3937l0.0381-0.4572-0.0381-0.0762s-0.889 0.1016-1.5494 0.1016c-0.381 0-1.2446-0.0254-1.2446-0.0254l-0.0762 0.4826 0.0254 0.0381c0.508 0.0254 0.7747 0.1524 0.9017 0.5334 0.0508 0.1524 0.1016 0.3302 0.1651 0.4953-0.4572 1.2065-0.9652 2.6543-1.397 3.7338h-0.0762s-1.1938-4.0513-1.1938-4.4323c0-0.2794 0.1651-0.3429 0.8636-0.3937l0.0508-0.4572-0.0381-0.0762s-0.8001 0.1016-1.5621 0.1016c-0.3683 0-1.1938-0.0254-1.1938-0.0254l-0.0762 0.4826c0.0127 0.0127 0.0254 0.0254 0.0254 0.0381 0.4953 0.0254 0.762 0.2032 0.889 0.5842 0.8001 2.3495 1.6764 5.4102 1.6764 5.4102zm11.813-0.0762s0.7747-0.0889 1.6002-0.0889c0.381 0 1.1557 0.0254 1.1557 0.0254l0.0635-0.4572-0.0254-0.0508c-0.5715-0.0508-0.7874-0.2159-0.9525-0.6985-0.7239-2.0447-1.6129-5.2451-1.6129-5.2451l-0.0889-0.0127-0.9017 0.1651-1.9939 5.0419c-0.2159 0.5207-0.4064 0.6858-0.7747 0.7366l-0.0762 0.5207s0.6477-0.0254 1.1684-0.0254c0.6858 0 1.4605 0.0635 1.4605 0.0635l0.0762-0.4826-0.0381-0.0508h-0.5461c-0.4191 0-0.5969-0.1016-0.5969-0.381 0-0.0762 0.0381-0.1905 0.0889-0.3556l0.3556-0.9398c0.2413-0.0254 0.7112-0.0762 1.0922-0.0762 0.2794 0 0.8001 0 1.0541 0.0127l0.3048 0.9779c0.0635 0.1651 0.0889 0.3175 0.0889 0.4318 0 0.2413-0.1905 0.3175-0.9017 0.3683l-0.0381 0.4572zm-1.4351-2.8321 0.9271-2.5146h0.0889l0.7747 2.4638c-0.2413 0.0254-0.6604 0.0508-0.9271 0.0508zm7.8126 2.9083 0.9398-0.2159 2.1463-5.2832c0.1524-0.381 0.254-0.4699 0.6604-0.4953l0.0889-0.5207s-0.6604 0.0254-1.1684 0.0254c-0.6858 0-1.4986-0.0635-1.4986-0.0635l-0.0635 0.4826 0.0254 0.0508h0.508c0.4826 0 0.6731 0.1016 0.6731 0.3683 0 0.3048-1.1557 3.2893-1.6256 4.4196h-0.1143s-1.2192-4.1021-1.2192-4.4323c0-0.2794 0.1651-0.3429 0.9017-0.3937l0.0381-0.4572-0.0381-0.0762s-1.0033 0.1016-1.6129 0.1016c-0.381 0-1.2319-0.0254-1.2319-0.0254l-0.0762 0.4826 0.0254 0.0381c0.508 0.0254 0.7874 0.2032 0.9144 0.5842 0.8001 2.3495 1.7272 5.4102 1.7272 5.4102zm5.9584-0.0635s0.7112-0.1016 1.5367-0.1016c1.0668 0 3.175 0.0635 3.175 0.0635l0.0762-0.0635c0.0889-0.889 0.2794-1.7272 0.2794-1.7272l-0.0508-0.0635-0.5588 0.0508c-0.1651 1.0668-0.3556 1.1938-1.9177 1.1938-0.7112 0-0.7747-0.0635-0.7747-0.5969 0-0.3175 0-0.7747 0.0381-1.7399 0.1778-0.0254 0.4826-0.0635 0.8001-0.0635 0.5461 0 1.4224 0.0254 1.4224 0.0254l0.1524-0.6604-0.0508-0.0635s-0.889 0.1016-1.2573 0.1016l-1.0414-0.0127 0.0762-1.8034c0.0127-0.3429 0.0508-0.3683 0.6858-0.3683 1.397 0 1.524 0.0635 1.524 0.6858 0 0.1397-0.0254 0.4191-0.0254 0.4191l0.6096-0.0508c0.0635-0.9144 0.2413-1.7018 0.2413-1.7018l-0.0381-0.0635c-0.6731 0.0762-1.524 0.1143-3.1369 0.1143-0.6604 0-1.5621-0.0254-1.5621-0.0254l-0.0762 0.4826 0.0254 0.0508s0.2286-0.0127 0.3429-0.0127c0.3048 0 0.381 0.1016 0.381 0.5334l-0.0127 4.0259c0 0.5715-0.1778 0.762-0.8001 0.8382zm14.558 0.0127c1.2573 0 2.1717-0.3937 2.1717-0.3937l0.0762-0.1016c0.0635-0.7493 0.2667-1.6891 0.2667-1.6891l-0.635 0.0508c-0.2413 1.0414-0.762 1.4986-1.651 1.4986-1.3589 0-2.2225-1.0668-2.2225-2.7686 0-1.5367 0.8128-2.4511 2.1336-2.4511 0.9525 0 1.4224 0.2921 1.4224 0.889 0 0.2413-0.0254 0.4953-0.0254 0.4953l0.635-0.0381c0.0635-0.9652 0.2667-1.7272 0.2667-1.7272l-0.0508-0.0762s-0.9906-0.2413-1.8542-0.2413c-2.1336 0-3.6449 1.4351-3.6449 3.4798 0 1.8923 1.2065 3.0734 3.1115 3.0734zm9.9335 0.0381 0.9779-0.1016 0.0635-0.3937-0.0508-0.0635c-0.5334 0-0.8509-0.2286-1.2573-0.8382l-1.0795-1.6256c0.9525-0.4191 1.4986-1.1049 1.4986-1.8923 0-1.0033-0.8255-1.6002-2.1971-1.6002 0 0-0.9779 0.0381-1.3589 0.0381-0.3937 0-1.1938-0.0254-1.1938-0.0254l-0.0762 0.4826 0.0381 0.0508s0.2159-0.0127 0.3556-0.0127c0.2794 0 0.3683 0.1016 0.3683 0.5207l-0.0127 4.0513c0 0.5715-0.1524 0.7112-0.7747 0.7874l-0.0889 0.5207s0.5588-0.0381 1.0795-0.0381c0.4699 0 1.3589 0.0127 1.3589 0.0254l0.1016-0.4826-0.0254-0.0381c-0.6731-0.0127-0.7493-0.1016-0.7493-0.8001l0.0254-1.3589h0.8255l1.0668 1.8669c0.3175 0.5842 0.7366 0.9271 1.1049 0.9271zm-1.9431-3.3528-1.0287-0.1016c0-0.6604 0.0381-1.3208 0.1016-2.286 0-0.1778 0.0381-0.2286 0.1778-0.2286 1.2192 0 1.8161 0.4064 1.8161 1.2319 0 1.0795-1.0033 1.3589-1.0668 1.3843zm8.1174 3.2893s0.7747-0.0889 1.6002-0.0889c0.381 0 1.1557 0.0254 1.1557 0.0254l0.0635-0.4572-0.0254-0.0508c-0.5715-0.0508-0.7874-0.2159-0.9525-0.6985-0.7239-2.0447-1.6129-5.2451-1.6129-5.2451l-0.0889-0.0127-0.9017 0.1651-1.9939 5.0419c-0.2159 0.5207-0.4064 0.6858-0.7747 0.7366l-0.0762 0.5207s0.6477-0.0254 1.1684-0.0254c0.6858 0 1.4605 0.0635 1.4605 0.0635l0.0762-0.4826-0.0381-0.0508h-0.5461c-0.4191 0-0.5969-0.1016-0.5969-0.381 0-0.0762 0.0381-0.1905 0.0889-0.3556l0.3556-0.9398c0.2413-0.0254 0.7112-0.0762 1.0922-0.0762 0.2794 0 0.8001 0 1.0541 0.0127l0.3048 0.9779c0.0635 0.1651 0.0889 0.3175 0.0889 0.4318 0 0.2413-0.1905 0.3175-0.9017 0.3683l-0.0381 0.4572zm-1.4351-2.8321 0.9271-2.5146h0.0889l0.7747 2.4638c-0.2413 0.0254-0.6604 0.0508-0.9271 0.0508zm7.7491 2.9083 0.9144-0.2159 1.3843-3.7719h0.0635c0.6477 1.9812 1.1811 3.8354 1.2065 3.9878l0.9017-0.2159 2.0955-5.2832c0.1397-0.3937 0.254-0.4699 0.635-0.4953l0.0762-0.5207s-0.635 0.0254-1.1303 0.0254c-0.6477 0-1.4478-0.0635-1.4478-0.0635l-0.0762 0.4826 0.0254 0.0508h0.4826c0.4826 0 0.6604 0.0889 0.6604 0.3302 0 0.2921-1.1176 3.3274-1.5748 4.4577h-0.0889s-1.1938-4.0894-1.1938-4.4323c0-0.2794 0.1651-0.3429 0.8763-0.3937l0.0381-0.4572-0.0381-0.0762s-0.889 0.1016-1.5494 0.1016c-0.381 0-1.2446-0.0254-1.2446-0.0254l-0.0762 0.4826 0.0254 0.0381c0.508 0.0254 0.7747 0.1524 0.9017 0.5334 0.0508 0.1524 0.1016 0.3302 0.1651 0.4953-0.4572 1.2065-0.9652 2.6543-1.397 3.7338h-0.0762s-1.1938-4.0513-1.1938-4.4323c0-0.2794 0.1651-0.3429 0.8636-0.3937l0.0508-0.4572-0.0381-0.0762s-0.8001 0.1016-1.5621 0.1016c-0.3683 0-1.1938-0.0254-1.1938-0.0254l-0.0762 0.4826c0.0127 0.0127 0.0254 0.0254 0.0254 0.0381 0.4953 0.0254 0.762 0.2032 0.889 0.5842 0.8001 2.3495 1.6764 5.4102 1.6764 5.4102zm9.5144-0.0635s0.6858-0.1016 1.4986-0.1016c1.0414 0 2.8321 0.0889 2.8321 0.0889l0.0635-0.0762c0.1143-1.0414 0.2921-1.9939 0.2921-1.9939l-0.0381-0.0762-0.5588 0.0635c-0.2159 1.2446-0.4318 1.4478-1.5875 1.4478-0.7112 0-0.8255-0.1016-0.8255-0.7112 0-1.0033 0.0381-2.5781 0.127-3.7719 0.0508-0.6096 0.0127-0.762 0.7112-0.8509l0.0508-0.5334s-0.7874 0.0889-1.2319 0.0889c-0.4191 0-1.1684-0.0254-1.2319-0.0254l-0.0762 0.4826 0.0381 0.0508s0.2159-0.0127 0.3429-0.0127c0.3048 0 0.381 0.1016 0.381 0.5334l-0.0127 4.0259c0 0.5715-0.1651 0.762-0.6985 0.8382z" style="paint-order:markers stroke fill" aria-label="wave crawl"/>
  </g>
 </g>
</svg>
