<?xml version="1.0" encoding="UTF-8"?>
<!-- Created with Inkscape (http://www.inkscape.org/) -->
<svg id="svg1" width="220mm" height="20mm" version="1.1" viewBox="0 0 220 20" xmlns="http://www.w3.org/2000/svg">
 <text id="text4" x="152.84639" y="32.648571" fill="#f2f2f2" font-family="Leander" font-size="11.289px" letter-spacing="0px" text-align="center" text-anchor="middle" style="line-height:1;paint-order:markers stroke fill" xml:space="preserve"><tspan id="tspan3" x="152.84639" y="32.648571"/></text>
 <text id="text3" x="29.808861" y="14.203379" fill="#000000" font-family="'Alegreya SC'" font-size="11.289px" letter-spacing="0px" style="line-height:1;paint-order:markers stroke fill" xml:space="preserve"><tspan id="tspan1" x="29.808861" y="14.203379" fill="#000000" font-family="Leander" font-size="11.289px">THE EMPIRES STRIKE BACK</tspan></text>
 <g id="g13" transform="matrix(.0038969 0 0 .0038969 -3.9019 -3.2325)">
  <path id="path2" d="m3403 5304c-56-21-129-87-157-143-13-25-42-118-66-206-65-248-97-340-160-470-61-124-119-205-148-205-10 0-25 17-35 39-30 66-115 82-192 36-52-30-77-79-83-161-8-117 53-195 166-213 177-28 343 84 463 310 30 57 68 117 84 135 31 32 86 54 137 54 40 0 40 11 4 58-49 62-58 110-46 248 11 128 28 178 80 237 35 40 50 46 50 21 0-28 56-74 90-74 92 0 139 62 140 182 0 57-4 71-26 98-15 17-40 38-57 47-45 23-190 27-244 7z"/>
  <path id="path3" d="m5445 5311c-41-10-66-25-95-56-20-21-25-39-28-95-7-116 46-190 136-190 31 0 82 33 82 53 0 7 5 19 10 27 7 12 13 11 35-10 66-61 104-182 105-331 0-75-12-120-46-166-13-17-24-34-24-37s28-20 63-37c84-42 110-69 169-176 119-216 248-314 414-315 85 0 139 23 181 79 24 31 28 47 31 112 5 129-47 200-152 209-66 5-98-11-123-63-10-21-24-35-35-35-26 0-80 78-142 205-61 124-95 223-161 475-51 191-73 240-137 294-66 57-184 81-283 57z"/>
  <path id="path4" d="m2085 4997c-97-46-146-125-153-243-8-147 45-238 156-270 140-41 252 42 252 186 0 80-29 126-102 162-32 16-58 33-58 38 0 17 38 30 88 30 39 0 58-6 97-35 32-22 53-31 59-25 16 16-44 91-107 135-49 33-67 40-120 42-49 3-72-1-112-20z"/>
  <path id="path5" d="m6750 5007c-44-14-126-93-135-130-12-47 8-52 54-12 37 30 50 35 95 35 31 0 61-6 75-16l23-16-59-33c-74-40-103-87-103-165 0-144 112-227 252-186 94 27 148 105 156 223 6 93-10 152-60 214-53 67-118 99-200 98-35-1-79-6-98-12z"/>
  <path id="path6" d="m2547 4860c-42-8-108-64-134-114-24-46-53-157-53-203 0-52 25-73 87-73 77 0 91 13 137 125 18 43 41 71 68 86 13 7 9-4-12-38-16-27-35-70-42-97-12-46-12-49 11-67 26-21 90-25 139-8 27 9 61 57 62 86 1 13 57 84 79 99 15 11 11-1-15-43-55-91-44-153 27-153 82 0 218 282 177 366-12 26-20 30-73 35-82 9-411 8-458-1z"/>
  <path id="path7" d="m6037 4863c-65-6-82-32-73-111 7-69 71-205 120-257 37-38 68-44 104-19 28 20 28 46-3 113-14 30-24 56-22 58 8 7 41-39 71-99 35-71 60-88 126-88s94 22 87 70c-2 20-15 59-28 86s-25 54-27 59c-3 6 9-3 26-18 16-16 40-55 51-87 27-74 58-100 120-100 66 0 91 20 91 73 0 109-58 240-129 291l-43 31-211 1c-117 1-233-1-260-3z"/>
  <path id="path8" d="m3424 4734c-13-50 12-144 47-180 41-42 73-56 432-178l302-103 75 36c41 20 104 49 140 65l65 28-90 35c-189 74-484 176-698 242-122 37-232 71-244 75-19 6-23 3-29-20z"/>
  <path id="path9" d="m5510 4729c-519-163-740-241-1032-365-810-343-1338-672-1923-1195-395-354-689-725-884-1118-99-199-131-314-131-467 0-138 18-147 78-41 75 133 430 574 645 802 407 431 934 847 1452 1145 501 288 1300 624 1890 793 82 24 150 48 153 55 7 21-51 68-113 91-47 18-71 21-112 16-60-7-717-226-928-308-331-130-550-237-818-400-302-185-563-370-751-531-48-42-90-76-93-76-13 0 50 74 121 144 230 224 733 535 1284 795 221 104 344 152 637 252 383 129 535 185 564 207 41 30 68 77 75 131 6 49 0 102-13 100-3 0-49-14-101-30z"/>
  <path id="path10" d="m3403 4428c-23-5-56-22-72-37-32-30-42-71-17-71 8 0 144-42 302-94l287-95 230 116-134 46c-254 89-479 150-539 146-8-1-34-5-57-11z"/>
  <path id="path11" d="m5001 4055c-122-44-138-51-130-59 2-2 83-46 179-96 443-233 755-438 947-623 84-81 151-160 108-127-11 8-42 34-70 59-78 68-296 230-445 328-351 234-739 450-786 439-36-9-225-98-220-103 2-3 76-37 163-77 720-330 1283-706 1849-1233 282-263 698-755 878-1038 52-83 61-71 60 80 0 119-3 138-32 225-85 249-282 579-512 855-344 414-914 889-1440 1200-163 96-389 215-409 214-9 0-72-20-140-44zm1694-1190c192-189 401-448 520-644 55-90 99-180 92-187-2-2-34 48-72 112-73 122-223 327-333 454-35 41-144 158-241 260-127 133-162 175-127 150 28-19 100-84 161-145z"/>
 </g>
 <text id="text5" x="13.580889" y="5.2344704" fill="#000000" font-family="Leander" letter-spacing="0px" text-anchor="middle" style="line-height:0.6;paint-order:markers stroke fill" xml:space="preserve"><tspan id="tspan4" x="13.580889" y="5.2344704" font-size="3.175px" text-align="center" style="line-height:0.6">v</tspan><tspan id="tspan5" x="13.580889" y="8.6408339" font-size="5.6444px" text-align="center" style="line-height:0.6">1.1</tspan></text>
</svg>
